<svg id="Layer_1" data-name="Layer 1" xmlns="http://www.w3.org/2000/svg" viewBox="0 0 150 41.45"><defs><style>.cls-1{fill:#004260;}.cls-2{fill:#ea700c;}</style></defs><path class="cls-1" d="M26,29.33a3.57,3.57,0,0,1,0,.8,4.86,4.86,0,0,1-.94,2.3,5.12,5.12,0,0,1-.77.84,7.2,7.2,0,0,1-4.63,1.6c-2.39,0-5.2-.87-6.59-3s-.54-5.55,2.4-5.5a4.28,4.28,0,0,0-3.69-1.12,4.41,4.41,0,0,0-2.89,2.76,8.1,8.1,0,0,0,1.81,8.41,11.52,11.52,0,0,0,8.2,3.34l-17.35,0V1.18c5,.19,10-.35,14.9.22,1.94.22,4.05.73,5.2,2.31A3.68,3.68,0,0,0,19.9,3,9.88,9.88,0,0,0,11,6.11a10.26,10.26,0,0,0-2.19,9.24A9.47,9.47,0,0,0,11.6,20c3,2.63,7.35,2.86,11,4.52a5.76,5.76,0,0,1,3.33,3.23,4.11,4.11,0,0,1,.11,1.1C26,29,26,29.19,26,29.33Z"/><path class="cls-1" d="M30.51,29.78c0-.29,0-.58,0-.87a10.22,10.22,0,0,0-.36-2.67,12.39,12.39,0,0,0-.92-2.46A9.32,9.32,0,0,0,25.51,20a31,31,0,0,0-6.22-2.24c-3.66-1-5-1.86-5.41-2.37a4.11,4.11,0,0,1-1-2.84,4.67,4.67,0,0,1,1.38-3.4c.91-.95,2.46-1.43,4.61-1.43a6,6,0,0,1,4.52,1.56,5.57,5.57,0,0,1,1.19,1.85A8.8,8.8,0,0,1,23,15.56l-.06,0,.06.05a11.35,11.35,0,0,1,4.06,2.72,12.25,12.25,0,0,1,3.7,8.84A12.09,12.09,0,0,1,30.51,29.78Z"/><path class="cls-1" d="M37.16,11.2a29,29,0,0,1,5.42-.47c3,0,4.88.5,6.31,1.63a4.66,4.66,0,0,1,1.91,4,5.33,5.33,0,0,1-3.89,4.92v.07A5.83,5.83,0,0,1,51.66,27a6,6,0,0,1-1.95,4.49c-1.6,1.43-4.2,2.1-8,2.1a34.08,34.08,0,0,1-4.6-.27Zm3,9.19h2.7c3.14,0,5-1.6,5-3.77,0-2.63-2-3.66-5-3.66a13.12,13.12,0,0,0-2.63.2Zm0,10.75a16.36,16.36,0,0,0,2.49.13c3.08,0,5.91-1.09,5.91-4.36,0-3.06-2.7-4.33-5.94-4.33H40.12Z"/><path class="cls-1" d="M58.89,12.7a1.86,1.86,0,0,1-3.72,0,1.81,1.81,0,0,1,1.88-1.84A1.76,1.76,0,0,1,58.89,12.7ZM55.55,33.34V17.22h3V33.34Z"/><path class="cls-1" d="M61.66,31.64l7.47-9.49c.71-.86,1.4-1.63,2.15-2.5v-.06H62.34V17.22H74.93l0,1.84-7.37,9.35c-.68.9-1.36,1.7-2.11,2.53V31h9.65v2.33H61.66Z"/><path class="cls-2" d="M77.83,29.81a10.68,10.68,0,0,0,5.32,1.46c3,0,4.81-1.56,4.81-3.82,0-2.1-1.23-3.3-4.33-4.47-3.75-1.29-6.07-3.19-6.07-6.36,0-3.49,3-6.09,7.43-6.09a10.64,10.64,0,0,1,5.09,1.1L89.26,14a9.48,9.48,0,0,0-4.37-1.06c-3.14,0-4.33,1.83-4.33,3.36,0,2.1,1.4,3.13,4.57,4.33C89,22.09,91,23.92,91,27.21c0,3.47-2.63,6.46-8,6.46a12.11,12.11,0,0,1-5.87-1.43Z"/><path class="cls-2" d="M108.78,28.94c0,1.67,0,3.13.13,4.4h-2.66l-.17-2.63H106a6.22,6.22,0,0,1-5.46,3c-2.59,0-5.69-1.4-5.69-7.06V17.22h3v8.93c0,3.06,1,5.12,3.68,5.12a4.32,4.32,0,0,0,4-2.66,4.17,4.17,0,0,0,.28-1.5V17.22h3Z"/><path class="cls-2" d="M117.38,12.6v4.62h4.3v2.24h-4.3v8.68c0,2,.58,3.13,2.25,3.13a6.89,6.89,0,0,0,1.74-.2l.14,2.2a7.41,7.41,0,0,1-2.67.4,4.23,4.23,0,0,1-3.24-1.23c-.85-.87-1.16-2.3-1.16-4.2V19.46h-2.56V17.22h2.56V13.36Z"/><path class="cls-2" d="M125.05,22.25c0-1.9,0-3.53-.13-5h2.63l.1,3.17h.13a4.94,4.94,0,0,1,4.58-3.53,3.15,3.15,0,0,1,.85.1v2.76a4.4,4.4,0,0,0-1-.1c-2.12,0-3.62,1.57-4,3.76a7.92,7.92,0,0,0-.14,1.37v8.59h-3Z"/><path class="cls-2" d="M145.19,33.34l-.24-2h-.11a6.2,6.2,0,0,1-5,2.4c-3.35,0-5.05-2.3-5.05-4.63,0-3.9,3.54-6,9.93-6v-.33c0-1.33-.38-3.73-3.76-3.73a8.42,8.42,0,0,0-4.3,1.2l-.68-1.93a10.38,10.38,0,0,1,5.43-1.43c5,0,6.27,3.36,6.27,6.59v6a21.65,21.65,0,0,0,.28,3.86Zm-.45-8.22c-3.27-.07-7,.49-7,3.62a2.63,2.63,0,0,0,2.83,2.8,4.1,4.1,0,0,0,4-2.7,2.77,2.77,0,0,0,.17-.93Z"/></svg>