<svg id="Layer_1" data-name="Layer 1" xmlns="http://www.w3.org/2000/svg" viewBox="0 0 56 56"><defs><style>.cls-1{fill:#052f5f;}</style></defs><title>user-blue</title><path class="cls-1" d="M28,27.86A13.85,13.85,0,1,0,14.15,14,13.86,13.86,0,0,0,28,27.86Zm3.46-4.06-.61.2Z"/><path class="cls-1" d="M39.11,28.59a1.73,1.73,0,0,0-2.18.7,10.36,10.36,0,0,1-17.87,0,1.73,1.73,0,0,0-2.18-.7A27.83,27.83,0,0,0,.17,54.1,1.73,1.73,0,0,0,1.9,55.83H54.1a1.73,1.73,0,0,0,1.73-1.73A27.83,27.83,0,0,0,39.11,28.59Z"/></svg>